<svg xmlns="http://www.w3.org/2000/svg" xmlns:xlink="http://www.w3.org/1999/xlink" width="350" zoomAndPan="magnify" viewBox="0 0 262.5 74.999997" height="100" preserveAspectRatio="xMidYMid meet" version="1.0"><defs><g><g id="id1"/></g></defs><g fill="rgb(0%, 0%, 0%)" fill-opacity="1"><g transform="translate(8.203124, 51.821284)"><g><path d="M 28.359375 0 L 28.28125 -14.984375 L 21.015625 -2.78125 L 17.453125 -2.78125 L 10.21875 -14.59375 L 10.21875 0 L 2.828125 0 L 2.828125 -28.28125 L 9.421875 -28.28125 L 19.359375 -11.953125 L 29.046875 -28.28125 L 35.640625 -28.28125 L 35.71875 0 Z M 28.359375 0 "/></g></g></g><g fill="rgb(0%, 0%, 0%)" fill-opacity="1"><g transform="translate(46.750666, 51.821284)"><g><path d="M 2.828125 -28.28125 L 10.828125 -28.28125 L 10.828125 0 L 2.828125 0 Z M 2.828125 -28.28125 "/></g></g></g><g fill="rgb(0%, 0%, 0%)" fill-opacity="1"><g transform="translate(60.448372, 51.821284)"><g><path d="M 21.78125 -5.5 L 9.8125 -5.5 L 7.59375 0 L -0.5625 0 L 11.921875 -28.28125 L 19.796875 -28.28125 L 32.328125 0 L 24 0 Z M 19.4375 -11.390625 L 15.796875 -20.453125 L 12.15625 -11.390625 Z M 19.4375 -11.390625 "/></g></g></g><g fill="rgb(100%, 59.21936%, 50.979614%)" fill-opacity="1"><g transform="translate(92.203113, 51.821284)"><g><path d="M 16.9375 0.5625 C 13.96875 0.5625 11.304688 -0.0625 8.953125 -1.3125 C 6.597656 -2.5625 4.742188 -4.304688 3.390625 -6.546875 C 2.046875 -8.785156 1.375 -11.316406 1.375 -14.140625 C 1.375 -16.972656 2.046875 -19.503906 3.390625 -21.734375 C 4.742188 -23.972656 6.597656 -25.71875 8.953125 -26.96875 C 11.304688 -28.21875 13.96875 -28.84375 16.9375 -28.84375 C 19.519531 -28.84375 21.847656 -28.382812 23.921875 -27.46875 C 25.992188 -26.5625 27.71875 -25.242188 29.09375 -23.515625 L 24 -18.90625 C 22.164062 -21.113281 19.941406 -22.21875 17.328125 -22.21875 C 15.796875 -22.21875 14.429688 -21.878906 13.234375 -21.203125 C 12.035156 -20.535156 11.101562 -19.585938 10.4375 -18.359375 C 9.78125 -17.140625 9.453125 -15.734375 9.453125 -14.140625 C 9.453125 -12.554688 9.78125 -11.148438 10.4375 -9.921875 C 11.101562 -8.691406 12.035156 -7.738281 13.234375 -7.0625 C 14.429688 -6.394531 15.796875 -6.0625 17.328125 -6.0625 C 19.941406 -6.0625 22.164062 -7.164062 24 -9.375 L 29.09375 -4.765625 C 27.71875 -3.046875 25.992188 -1.726562 23.921875 -0.8125 C 21.847656 0.101562 19.519531 0.5625 16.9375 0.5625 Z M 16.9375 0.5625 "/></g></g></g><g fill="rgb(0%, 0%, 0%)" fill-opacity="1"><g transform="translate(122.015609, 51.821284)"><g><path d="M 17.09375 0.5625 C 14.101562 0.5625 11.414062 -0.0664062 9.03125 -1.328125 C 6.644531 -2.597656 4.769531 -4.347656 3.40625 -6.578125 C 2.050781 -8.816406 1.375 -11.335938 1.375 -14.140625 C 1.375 -16.941406 2.050781 -19.457031 3.40625 -21.6875 C 4.769531 -23.925781 6.644531 -25.675781 9.03125 -26.9375 C 11.414062 -28.207031 14.101562 -28.84375 17.09375 -28.84375 C 20.082031 -28.84375 22.769531 -28.207031 25.15625 -26.9375 C 27.539062 -25.675781 29.410156 -23.925781 30.765625 -21.6875 C 32.128906 -19.457031 32.8125 -16.941406 32.8125 -14.140625 C 32.8125 -11.335938 32.128906 -8.816406 30.765625 -6.578125 C 29.410156 -4.347656 27.539062 -2.597656 25.15625 -1.328125 C 22.769531 -0.0664062 20.082031 0.5625 17.09375 0.5625 Z M 17.09375 -6.0625 C 18.519531 -6.0625 19.8125 -6.394531 20.96875 -7.0625 C 22.125 -7.738281 23.039062 -8.691406 23.71875 -9.921875 C 24.394531 -11.148438 24.734375 -12.554688 24.734375 -14.140625 C 24.734375 -15.734375 24.394531 -17.140625 23.71875 -18.359375 C 23.039062 -19.585938 22.125 -20.535156 20.96875 -21.203125 C 19.8125 -21.878906 18.519531 -22.21875 17.09375 -22.21875 C 15.664062 -22.21875 14.367188 -21.878906 13.203125 -21.203125 C 12.046875 -20.535156 11.128906 -19.585938 10.453125 -18.359375 C 9.785156 -17.140625 9.453125 -15.734375 9.453125 -14.140625 C 9.453125 -12.554688 9.785156 -11.148438 10.453125 -9.921875 C 11.128906 -8.691406 12.046875 -7.738281 13.203125 -7.0625 C 14.367188 -6.394531 15.664062 -6.0625 17.09375 -6.0625 Z M 17.09375 -6.0625 "/></g></g></g><g fill="rgb(0%, 0%, 0%)" fill-opacity="1"><g transform="translate(156.199278, 51.821284)"><g><path d="M 2.828125 -28.28125 L 16.203125 -28.28125 C 19.296875 -28.28125 22.039062 -27.703125 24.4375 -26.546875 C 26.84375 -25.390625 28.703125 -23.742188 30.015625 -21.609375 C 31.335938 -19.484375 32 -16.992188 32 -14.140625 C 32 -11.285156 31.335938 -8.789062 30.015625 -6.65625 C 28.703125 -4.53125 26.84375 -2.890625 24.4375 -1.734375 C 22.039062 -0.578125 19.296875 0 16.203125 0 L 2.828125 0 Z M 15.875 -6.390625 C 18.300781 -6.390625 20.25 -7.070312 21.71875 -8.4375 C 23.1875 -9.8125 23.921875 -11.710938 23.921875 -14.140625 C 23.921875 -16.566406 23.1875 -18.46875 21.71875 -19.84375 C 20.25 -21.21875 18.300781 -21.90625 15.875 -21.90625 L 10.828125 -21.90625 L 10.828125 -6.390625 Z M 15.875 -6.390625 "/></g></g></g><g fill="rgb(0%, 0%, 0%)" fill-opacity="1"><g transform="translate(189.574823, 51.821284)"><g><path d="M 25.53125 -6.1875 L 25.53125 0 L 2.828125 0 L 2.828125 -28.28125 L 25.015625 -28.28125 L 25.015625 -22.109375 L 10.75 -22.109375 L 10.75 -17.328125 L 23.3125 -17.328125 L 23.3125 -11.359375 L 10.75 -11.359375 L 10.75 -6.1875 Z M 25.53125 -6.1875 "/></g></g></g><g fill="rgb(0%, 0%, 0%)" fill-opacity="1"><g transform="translate(216.727804, 51.821284)"><g><path d="M 12.765625 0.5625 C 10.472656 0.5625 8.25 0.28125 6.09375 -0.28125 C 3.945312 -0.84375 2.195312 -1.597656 0.84375 -2.546875 L 3.46875 -8.4375 C 4.738281 -7.601562 6.207031 -6.929688 7.875 -6.421875 C 9.550781 -5.910156 11.195312 -5.65625 12.8125 -5.65625 C 15.882812 -5.65625 17.421875 -6.421875 17.421875 -7.953125 C 17.421875 -8.765625 16.976562 -9.363281 16.09375 -9.75 C 15.21875 -10.144531 13.8125 -10.554688 11.875 -10.984375 C 9.75 -11.441406 7.972656 -11.929688 6.546875 -12.453125 C 5.117188 -12.984375 3.890625 -13.828125 2.859375 -14.984375 C 1.835938 -16.148438 1.328125 -17.710938 1.328125 -19.671875 C 1.328125 -21.398438 1.796875 -22.957031 2.734375 -24.34375 C 3.679688 -25.726562 5.09375 -26.820312 6.96875 -27.625 C 8.84375 -28.4375 11.140625 -28.84375 13.859375 -28.84375 C 15.710938 -28.84375 17.539062 -28.632812 19.34375 -28.21875 C 21.15625 -27.800781 22.75 -27.191406 24.125 -26.390625 L 21.65625 -20.453125 C 18.957031 -21.898438 16.34375 -22.625 13.8125 -22.625 C 12.226562 -22.625 11.070312 -22.390625 10.34375 -21.921875 C 9.613281 -21.453125 9.25 -20.835938 9.25 -20.078125 C 9.25 -19.328125 9.679688 -18.757812 10.546875 -18.375 C 11.410156 -18 12.796875 -17.613281 14.703125 -17.21875 C 16.859375 -16.757812 18.644531 -16.265625 20.0625 -15.734375 C 21.476562 -15.210938 22.703125 -14.378906 23.734375 -13.234375 C 24.773438 -12.085938 25.296875 -10.53125 25.296875 -8.5625 C 25.296875 -6.863281 24.820312 -5.328125 23.875 -3.953125 C 22.9375 -2.585938 21.523438 -1.492188 19.640625 -0.671875 C 17.753906 0.148438 15.460938 0.5625 12.765625 0.5625 Z M 12.765625 0.5625 "/></g></g></g><g fill="rgb(100%, 59.21936%, 50.979614%)" fill-opacity="1"><g transform="translate(242.859343, 51.821284)"><g><path d="M 5.703125 0.359375 C 4.398438 0.359375 3.304688 -0.0664062 2.421875 -0.921875 C 1.535156 -1.785156 1.09375 -2.878906 1.09375 -4.203125 C 1.09375 -5.546875 1.53125 -6.632812 2.40625 -7.46875 C 3.28125 -8.3125 4.378906 -8.734375 5.703125 -8.734375 C 7.046875 -8.734375 8.144531 -8.3125 9 -7.46875 C 9.863281 -6.632812 10.296875 -5.546875 10.296875 -4.203125 C 10.296875 -2.878906 9.859375 -1.785156 8.984375 -0.921875 C 8.109375 -0.0664062 7.015625 0.359375 5.703125 0.359375 Z M 5.703125 0.359375 "/></g></g></g></svg>